<svg width="800" height="450" viewBox="0 0 800 450" fill="none" xmlns="http://www.w3.org/2000/svg">
  <rect width="800" height="450" fill="#18181B"/>
  <rect width="800" height="450" fill="url(#paint0_linear)"/>

  <!-- Discord Logo -->
  <path d="M400 150C355 150 320 185 320 230V320C320 365 355 400 400 400H480C525 400 560 365 560 320V230C560 185 525 150 480 150H400Z" fill="#5865F2" fill-opacity="0.2" stroke="#5865F2" stroke-width="4"/>
  <path d="M487.5 231.2C478.7 227.1 469.2 224.1 459.2 222.4C458.9 222.3 458.6 222.5 458.5 222.8C457.3 225 456 228 455 230.4C444.3 228.8 433.7 228.8 423 230.4C422 228 420.7 225 419.4 222.8C419.3 222.5 419 222.3 418.7 222.4C408.7 224.1 399.2 227.1 390.4 231.2C390.3 231.3 390.1 231.4 390 231.6C369.2 262.3 363.9 292.1 366.5 321.5C366.5 321.8 366.7 322 366.9 322.2C379.2 331 391.1 336.4 402.8 340C403.1 340.1 403.5 339.9 403.6 339.6C406.5 335.6 409.1 331.3 411.3 326.9C411.5 326.5 411.3 326.1 410.9 325.9C406.9 324.4 403.1 322.5 399.4 320.4C399 320.2 398.9 319.6 399.3 319.3C400.1 318.7 400.9 318.1 401.7 317.5C401.9 317.3 402.2 317.3 402.4 317.4C428.9 329.6 457.9 329.6 484.1 317.4C484.3 317.3 484.6 317.3 484.8 317.5C485.6 318.1 486.4 318.7 487.2 319.3C487.6 319.6 487.5 320.2 487.1 320.4C483.4 322.6 479.6 324.4 475.6 325.9C475.2 326 475 326.5 475.2 326.9C477.5 331.3 480.1 335.6 482.9 339.6C483.1 339.9 483.4 340.1 483.8 340C495.5 336.4 507.4 331 519.7 322.2C520 322 520.1 321.8 520.2 321.5C523.2 287.3 514.8 257.8 497.5 231.6C497.4 231.4 497.3 231.3 497.1 231.2H487.5ZM413.7 304.5C404.7 304.5 397.3 296.3 397.3 286.3C397.3 276.3 404.5 268.1 413.7 268.1C422.9 268.1 430.3 276.3 430.1 286.3C430.1 296.3 422.9 304.5 413.7 304.5ZM474.1 304.5C465.1 304.5 457.7 296.3 457.7 286.3C457.7 276.3 464.9 268.1 474.1 268.1C483.3 268.1 490.7 276.3 490.5 286.3C490.5 296.3 483.3 304.5 474.1 304.5Z" fill="#5865F2"/>

  <!-- Gambling Elements -->
  <rect x="200" y="200" width="60" height="80" rx="4" fill="#EF4444" stroke="white" stroke-width="2"/>
  <rect x="200" y="200" width="60" height="20" fill="white" stroke="white"/>
  <circle cx="230" cy="210" r="6" fill="#EF4444"/>
  <rect x="210" y="230" width="40" height="40" fill="white" stroke="white"/>
  <circle cx="218" cy="238" r="3" fill="black"/>
  <circle cx="230" cy="250" r="3" fill="black"/>
  <circle cx="242" cy="262" r="3" fill="black"/>

  <circle cx="620" cy="260" r="40" fill="#FCD34D" fill-opacity="0.8" stroke="#FCD34D"/>
  <circle cx="620" cy="260" r="35" fill="#18181B" stroke="#FCD34D"/>
  <path d="M610 245L615 255L625 240L635 275L645 255" stroke="#FCD34D" stroke-width="2"/>

  <!-- Dice -->
  <rect x="300" y="350" width="40" height="40" rx="4" fill="white"/>
  <circle cx="310" cy="360" r="5" fill="#18181B"/>
  <circle cx="330" cy="360" r="5" fill="#18181B"/>
  <circle cx="310" cy="380" r="5" fill="#18181B"/>
  <circle cx="330" cy="380" r="5" fill="#18181B"/>

  <rect x="360" y="350" width="40" height="40" rx="4" fill="white"/>
  <circle cx="380" cy="370" r="5" fill="#18181B"/>

  <!-- Playing Cards -->
  <rect x="430" y="340" width="30" height="50" rx="2" fill="white" stroke="#18181B"/>
  <rect x="440" y="330" width="30" height="50" rx="2" fill="white" stroke="#18181B"/>
  <rect x="450" y="320" width="30" height="50" rx="2" fill="white" stroke="#18181B"/>
  <path d="M458 325L465 335L472 325" stroke="#EF4444" fill="none"/>
  <path d="M458 365L465 355L472 365" stroke="#EF4444" fill="none"/>

  <!-- Title -->
  <text x="400" y="100" fill="white" font-family="sans-serif" font-size="24" text-anchor="middle" font-weight="bold">Gambling Discord Bot</text>

  <defs>
    <linearGradient id="paint0_linear" x1="400" y1="0" x2="400" y2="450" gradientUnits="userSpaceOnUse">
      <stop stop-color="#27272A"/>
      <stop offset="1" stop-color="#18181B"/>
    </linearGradient>
  </defs>
</svg>
