<svg width="800" height="450" viewBox="0 0 800 450" fill="none" xmlns="http://www.w3.org/2000/svg">
  <rect width="800" height="450" fill="#18181B"/>
  <rect width="800" height="450" fill="url(#paint0_linear)"/>

  <!-- Discord Logo -->
  <path d="M400 150C355 150 320 185 320 230V320C320 365 355 400 400 400H480C525 400 560 365 560 320V230C560 185 525 150 480 150H400Z" fill="#5865F2" fill-opacity="0.2" stroke="#5865F2" stroke-width="4"/>
  <path d="M487.5 231.2C478.7 227.1 469.2 224.1 459.2 222.4C458.9 222.3 458.6 222.5 458.5 222.8C457.3 225 456 228 455 230.4C444.3 228.8 433.7 228.8 423 230.4C422 228 420.7 225 419.4 222.8C419.3 222.5 419 222.3 418.7 222.4C408.7 224.1 399.2 227.1 390.4 231.2C390.3 231.3 390.1 231.4 390 231.6C369.2 262.3 363.9 292.1 366.5 321.5C366.5 321.8 366.7 322 366.9 322.2C379.2 331 391.1 336.4 402.8 340C403.1 340.1 403.5 339.9 403.6 339.6C406.5 335.6 409.1 331.3 411.3 326.9C411.5 326.5 411.3 326.1 410.9 325.9C406.9 324.4 403.1 322.5 399.4 320.4C399 320.2 398.9 319.6 399.3 319.3C400.1 318.7 400.9 318.1 401.7 317.5C401.9 317.3 402.2 317.3 402.4 317.4C428.9 329.6 457.9 329.6 484.1 317.4C484.3 317.3 484.6 317.3 484.8 317.5C485.6 318.1 486.4 318.7 487.2 319.3C487.6 319.6 487.5 320.2 487.1 320.4C483.4 322.6 479.6 324.4 475.6 325.9C475.2 326 475 326.5 475.2 326.9C477.5 331.3 480.1 335.6 482.9 339.6C483.1 339.9 483.4 340.1 483.8 340C495.5 336.4 507.4 331 519.7 322.2C520 322 520.1 321.8 520.2 321.5C523.2 287.3 514.8 257.8 497.5 231.6C497.4 231.4 497.3 231.3 497.1 231.2H487.5ZM413.7 304.5C404.7 304.5 397.3 296.3 397.3 286.3C397.3 276.3 404.5 268.1 413.7 268.1C422.9 268.1 430.3 276.3 430.1 286.3C430.1 296.3 422.9 304.5 413.7 304.5ZM474.1 304.5C465.1 304.5 457.7 296.3 457.7 286.3C457.7 276.3 464.9 268.1 474.1 268.1C483.3 268.1 490.7 276.3 490.5 286.3C490.5 296.3 483.3 304.5 474.1 304.5Z" fill="#5865F2"/>

  <!-- Music Elements -->
  <!-- Music Player -->
  <rect x="200" y="200" width="240" height="120" rx="8" fill="#1E293B" stroke="#334155" stroke-width="2"/>

  <!-- Song Progress -->
  <rect x="220" y="260" width="200" height="6" rx="3" fill="#334155"/>
  <rect x="220" y="260" width="120" height="6" rx="3" fill="#10B981"/>
  <circle cx="340" cy="263" r="6" fill="#10B981" stroke="#10B981"/>

  <!-- Player Controls -->
  <circle cx="260" cy="290" r="15" fill="#334155" stroke="#475569"/>
  <path d="M253 290L267 283V297L253 290Z" fill="#CBD5E1"/>

  <circle cx="300" cy="290" r="15" fill="#334155" stroke="#475569"/>
  <rect x="294" y="284" width="12" height="12" fill="#CBD5E1"/>

  <circle cx="340" cy="290" r="15" fill="#334155" stroke="#475569"/>
  <path d="M347 290L333 283V297L347 290Z" fill="#CBD5E1"/>

  <circle cx="380" cy="290" r="15" fill="#334155" stroke="#475569"/>
  <path d="M373 283L373 297M387 283L387 297" stroke="#CBD5E1" stroke-width="2"/>

  <!-- Song Info -->
  <rect x="220" y="220" width="180" height="10" rx="2" fill="#64748B"/>
  <rect x="220" y="235" width="140" height="8" rx="2" fill="#475569"/>

  <!-- Volume -->
  <path d="M420 275L420 305M420 275C420 275 430 275 440 275C450 275 450 265 440 265C430 265 420 265 420 265V275Z" stroke="#CBD5E1" stroke-width="2"/>

  <!-- Music Notes and Waves -->
  <path d="M600 200C600 200 620 220 640 220C660 220 680 200 700 200" stroke="#10B981" stroke-width="3" stroke-linecap="round"/>
  <path d="M600 220C600 220 620 240 640 240C660 240 680 220 700 220" stroke="#10B981" stroke-width="3" stroke-linecap="round"/>
  <path d="M600 240C600 240 620 260 640 260C660 260 680 240 700 240" stroke="#10B981" stroke-width="3" stroke-linecap="round"/>

  <path d="M530 280L530 220L540 230V290" stroke="#60A5FA" stroke-width="3"/>
  <circle cx="520" cy="280" r="10" fill="#60A5FA"/>

  <path d="M570 260L570 200L580 210V270" stroke="#A855F7" stroke-width="3"/>
  <circle cx="560" cy="260" r="10" fill="#A855F7"/>

  <!-- Playlist UI -->
  <rect x="200" y="340" width="400" height="70" rx="4" fill="#1E293B" stroke="#334155" stroke-width="2"/>
  <rect x="210" y="350" width="380" height="10" rx="2" fill="#64748B"/>
  <rect x="210" y="370" width="380" height="10" rx="2" fill="#475569"/>
  <rect x="210" y="390" width="380" height="10" rx="2" fill="#334155"/>

  <!-- Title -->
  <text x="400" y="100" fill="white" font-family="sans-serif" font-size="24" text-anchor="middle" font-weight="bold">Music Discord Bot</text>

  <defs>
    <linearGradient id="paint0_linear" x1="400" y1="0" x2="400" y2="450" gradientUnits="userSpaceOnUse">
      <stop stop-color="#27272A"/>
      <stop offset="1" stop-color="#18181B"/>
    </linearGradient>
  </defs>
</svg>
