<svg width="800" height="450" viewBox="0 0 800 450" fill="none" xmlns="http://www.w3.org/2000/svg">
  <rect width="800" height="450" fill="#18181B"/>
  <rect width="800" height="450" fill="url(#paint0_linear)"/>

  <!-- Profile circles -->
  <circle cx="250" cy="150" r="70" fill="#3B82F6" fill-opacity="0.3" stroke="#3B82F6" stroke-width="2"/>
  <circle cx="550" cy="150" r="70" fill="#EC4899" fill-opacity="0.3" stroke="#EC4899" stroke-width="2"/>

  <!-- User icons -->
  <circle cx="250" cy="120" r="25" fill="#3B82F6" fill-opacity="0.6"/>
  <rect x="225" y="160" width="50" height="8" rx="4" fill="#3B82F6" fill-opacity="0.6"/>
  <rect x="235" y="175" width="30" height="6" rx="3" fill="#3B82F6" fill-opacity="0.6"/>

  <circle cx="550" cy="120" r="25" fill="#EC4899" fill-opacity="0.6"/>
  <rect x="525" y="160" width="50" height="8" rx="4" fill="#EC4899" fill-opacity="0.6"/>
  <rect x="535" y="175" width="30" height="6" rx="3" fill="#EC4899" fill-opacity="0.6"/>

  <!-- Connection -->
  <path d="M320 150H480" stroke="#A5B4FC" stroke-width="4" stroke-dasharray="8 8"/>
  <circle cx="400" cy="150" r="8" fill="#A5B4FC"/>

  <!-- Posts/Content -->
  <rect x="170" y="250" width="160" height="100" rx="8" fill="#3F3F46"/>
  <rect x="190" y="270" width="120" height="6" rx="3" fill="#6D28D9" fill-opacity="0.7"/>
  <rect x="190" y="285" width="100" height="6" rx="3" fill="#6D28D9" fill-opacity="0.7"/>
  <rect x="190" y="300" width="90" height="6" rx="3" fill="#6D28D9" fill-opacity="0.7"/>

  <rect x="470" y="250" width="160" height="100" rx="8" fill="#3F3F46"/>
  <rect x="490" y="270" width="120" height="6" rx="3" fill="#DB2777" fill-opacity="0.7"/>
  <rect x="490" y="285" width="100" height="6" rx="3" fill="#DB2777" fill-opacity="0.7"/>
  <rect x="490" y="300" width="90" height="6" rx="3" fill="#DB2777" fill-opacity="0.7"/>

  <!-- Title -->
  <text x="400" y="380" fill="white" font-family="sans-serif" font-size="24" text-anchor="middle" font-weight="bold">Social Media Platform</text>

  <defs>
    <linearGradient id="paint0_linear" x1="400" y1="0" x2="400" y2="450" gradientUnits="userSpaceOnUse">
      <stop stop-color="#27272A"/>
      <stop offset="1" stop-color="#18181B"/>
    </linearGradient>
  </defs>
</svg>
